<svg xmlns="http://www.w3.org/2000/svg" width="45.951" height="21.951" viewBox="0 0 45.951 21.951">
  <g id="Group_10" data-name="Group 10" transform="translate(-353.049 -320)">
    <g id="instagram" transform="translate(353.049 320)">
      <g id="Group_5" data-name="Group 5" transform="translate(0 0)">
        <g id="Group_4" data-name="Group 4">
          <path id="Path_1" data-name="Path 1" d="M15.574,0h-9.2A6.384,6.384,0,0,0,0,6.376v9.2a6.384,6.384,0,0,0,6.376,6.376h9.2a6.384,6.384,0,0,0,6.376-6.376v-9.2A6.384,6.384,0,0,0,15.574,0Zm4.661,15.574a4.667,4.667,0,0,1-4.661,4.661h-9.2a4.667,4.667,0,0,1-4.661-4.661v-9.2A4.667,4.667,0,0,1,6.376,1.715h9.2a4.667,4.667,0,0,1,4.661,4.661Z" transform="translate(0 0)" fill="#fff"/>
        </g>
      </g>
      <g id="Group_7" data-name="Group 7" transform="translate(5.059 5.059)">
        <g id="Group_6" data-name="Group 6">
          <path id="Path_2" data-name="Path 2" d="M123.916,118a5.916,5.916,0,1,0,5.916,5.916A5.923,5.923,0,0,0,123.916,118Zm0,10.118a4.2,4.2,0,1,1,4.2-4.2A4.206,4.206,0,0,1,123.916,128.118Z" transform="translate(-118 -118)" fill="#fff"/>
        </g>
      </g>
      <g id="Group_9" data-name="Group 9" transform="translate(15.587 4.773)">
        <g id="Group_8" data-name="Group 8" transform="translate(0 0)">
          <circle id="Ellipse_1" data-name="Ellipse 1" cx="0.795" cy="0.795" r="0.795" fill="#fff"/>
        </g>
      </g>
    </g>
    <g id="instagram-2" data-name="instagram" transform="translate(377.049 320)">
      <g id="Group_5-2" data-name="Group 5" transform="translate(0 0)">
        <g id="Group_4-2" data-name="Group 4">
          <path id="Path_1-2" data-name="Path 1" d="M15.574,0h-9.2A6.384,6.384,0,0,0,0,6.376v9.2a6.384,6.384,0,0,0,6.376,6.376h9.2a6.384,6.384,0,0,0,6.376-6.376v-9.2A6.384,6.384,0,0,0,15.574,0Zm4.661,15.574a4.667,4.667,0,0,1-4.661,4.661h-9.2a4.667,4.667,0,0,1-4.661-4.661v-9.2A4.667,4.667,0,0,1,6.376,1.715h9.2a4.667,4.667,0,0,1,4.661,4.661Z" transform="translate(0 0)" fill="#c500c2"/>
        </g>
      </g>
      <g id="Group_7-2" data-name="Group 7" transform="translate(5.059 5.059)">
        <g id="Group_6-2" data-name="Group 6">
          <path id="Path_2-2" data-name="Path 2" d="M123.916,118a5.916,5.916,0,1,0,5.916,5.916A5.923,5.923,0,0,0,123.916,118Zm0,10.118a4.2,4.2,0,1,1,4.2-4.2A4.206,4.206,0,0,1,123.916,128.118Z" transform="translate(-118 -118)" fill="#c500c2"/>
        </g>
      </g>
      <g id="Group_9-2" data-name="Group 9" transform="translate(15.587 4.773)">
        <g id="Group_8-2" data-name="Group 8" transform="translate(0 0)">
          <circle id="Ellipse_1-2" data-name="Ellipse 1" cx="0.795" cy="0.795" r="0.795" fill="#c500c2"/>
        </g>
      </g>
    </g>
  </g>
</svg>
